<svg version="1.2" xmlns="http://www.w3.org/2000/svg" viewBox="0 0 640 640" width="640" height="640">
	<style>
		.s0 { fill: rgba(34, 57, 80, 0.46) } 
	</style>
	<path id="Capa 2" fill-rule="evenodd" class="s0" d="m252 63l42-7c0 0 25.04 38.99 21 39-4.04 0.01 32 2 32 2 0 0 24.57-35.54 27-36 2.43-0.46 40 11 40 11 0 0 6.68 40.37 4.53 42.98 4.55 2.02 26.47 14.02 26.47 14.02 0 0 36.86-23.43 38-23 1.14 0.43 30.16 23.65 30 26-0.16 2.35-11.12 43.28-14 43-2.88-0.28 16.11 16.31 16 20-0.11 3.69 38.59-4.01 41-3 2.41 1.01 20.76 33.52 19 38-1.76 4.48-29.74 32.61-29 34 0.74 1.39 4.84 22.9 5 25 0.16 2.1 38.42 9.87 39 13 0.58 3.13 2.52 40.76 1 43-1.52 2.24-39.37 16.94-40 17-0.63 0.06-5.22 24.02-6 26-0.78 1.98 29.56 25.64 30 28 0.44 2.36-16.52 38.95-19 41-2.48 2.05-39.26-0.84-42-2-2.74-1.16-13.96 21.02-16 19-2.04-2.02 15.05 38.45 14 41-1.05 2.55-28.93 26.42-31 26-2.07-0.42-37.66-18.55-38-21-0.34-2.45-31.22 17.1-28 16 3.22-1.1-4.86 40.2-5 41-0.14 0.8-40 12-40 12-0.83-0.32-26-35-26-35l-33 1c0 0-21.22 35.48-23 36-1.78 0.52-41-6-41-6 0 0-10.86-43.37-9-45 1.86-1.63-25.42-9.39-27-13-1.58-3.61-32.48 29.43-41 23-8.52-6.43-32.78-20.81-32-23 0.78-2.19 9.82-46.38 12-44 2.18 2.38-19-23-19-23 0 0-41.53 4.9-44 3-2.47-1.9-22.76-41.36-22-43 0.76-1.64 31.23-32.34 32-30 0.77 2.34-7.83-29.33-7-31 0.83-1.67-41.36-10.68-41-18 0.36-7.32 0-44 0-44 0 0 43.53-17.84 43-14-0.53 3.84 5.23-30.47 7-32 1.77-1.53-31.33-30.67-30-34 1.33-3.33 20.59-39.92 22-40 1.41-0.08 47.27 2.93 45 6-2.27 3.07 17.72-21.37 19-22 1.28-0.63-14.56-39.9-12-44 2.56-4.1 31.85-25.24 34-25 2.05 0.23 37.25 21.6 38.11 23.82 2.84-1.4 27.5-10.01 28.89-8.82 1.54 1.32 4.37-43.59 8-44zm166.53 51.98c-0.82-0.36-1.08-0.4-0.53 0.02q0.32 0.24 0.53-0.02zm-203.42 0.84q-0.47 0.23-0.11 0.18 0.17-0.03 0.11-0.18zm263.89 204.18c0-87.93-71.07-159-159-159-87.93 0-159 71.07-159 159 0 87.93 71.07 159 159 159 87.93 0 159-71.07 159-159z"/>
	<path id="Forma 1" fill-rule="evenodd" class="s0" d="m320 421c-55.85 0-101-45.15-101-101 0-55.85 45.15-101 101-101 55.85 0 101 45.15 101 101 0 55.85-45.15 101-101 101z"/>
</svg>